# xmcd
#
# Track frame offsets:
#	150
#	18060
#	43551
#	60531
#	76975
#	95185
#	110268
#	121960
#	138981
#	156221
#	173026
#	186209
#	205101
#	226782
#	240179
#	256843
#	273760
#	288340
#
# Disc length: 4047 seconds
#
# Revision: 1
# Processed by: cddbd v1.5.2PL0 Copyright (c) Steve Scherf et al.
# Submitted via: EasyCDDAExtractor 11.5.0.1
#
DISCID=e00fcd12
DTITLE=Various Artist - NCT 045
DYEAR=2003
DGENRE=Country
TTITLE0=Kenny Chesney - Big Star
TTITLE1=The Dixie Chicks - Travelin' Soldier
TTITLE2=Toby Keith - Rock You Baby
TTITLE3=Alan Jackson - That'd Be Alright
TTITLE4=Jeff Bates - The Love Song
TTITLE5=Randy Travis - Three Wooden Crosses
TTITLE6=Trini Triggs - I'm Only In It For The Love
TTITLE7=Jo Dee Messina - Was That My Life
TTITLE8=Travis Tritt - Country Ain't Country
TTITLE9=Radney Foster - Scary Old World
TTITLE10=Shania Twain - Up!
TTITLE11=Tebey - We Shook Hands (Man To Man)
TTITLE12=Craig Morgan - Almost Home
TTITLE13=Jenai - Cool Me Down
TTITLE14=Aaron Tippin ft. Thea Tippin - Love Like There's No Tomorrow
TTITLE15=Jessica Andrews - There's More To Me Than You
TTITLE16=Hank Williams, Jr. - Outdoor Lovin' Man
TTITLE17=McBride and the Ride - Amarillo Sky
EXTD=
EXTT0=
EXTT1=
EXTT2=
EXTT3=
EXTT4=
EXTT5=
EXTT6=
EXTT7=
EXTT8=
EXTT9=
EXTT10=
EXTT11=
EXTT12=
EXTT13=
EXTT14=
EXTT15=
EXTT16=
EXTT17=
PLAYORDER=
